PathFileType	4	(X/Y/Z)	C:/Users/opensim2020/Desktop/walking_exp_matlab/subject02_walking11_straight_02.trc	
DataRate	CameraRate	NumFrames	NumMarkers	Units	OrigDataRate	OrigDataStartFrame	OrigNumFrames	
100.00	100.00	4	42	mm	100.00	1806	230	
Frame#	Time	LFHD			RFHD			LBHD			RBHD			C7			T10			CLAV			STRN			RBAK			LSHO			LUPA			LELB			LFRM			LWRA			LWRB			LFIN			RSHO			RUPA			RELB			RFRM			RWRA			RWRB			RFIN			LASI			RASI			LPSI			RPSI			LTHI			LKNE			LTIB			LANK			LHEE			LTOE			RTHI			RKNE			RTIB			RANK			RHEE			RTOE			*39			*40			*41			
		X1	Y1	Z1	X2	Y2	Z2	X3	Y3	Z3	X4	Y4	Z4	X5	Y5	Z5	X6	Y6	Z6	X7	Y7	Z7	X8	Y8	Z8	X9	Y9	Z9	X10	Y10	Z10	X11	Y11	Z11	X12	Y12	Z12	X13	Y13	Z13	X14	Y14	Z14	X15	Y15	Z15	X16	Y16	Z16	X17	Y17	Z17	X18	Y18	Z18	X19	Y19	Z19	X20	Y20	Z20	X21	Y21	Z21	X22	Y22	Z22	X23	Y23	Z23	X24	Y24	Z24	X25	Y25	Z25	X26	Y26	Z26	X27	Y27	Z27	X28	Y28	Z28	X29	Y29	Z29	X30	Y30	Z30	X31	Y31	Z31	X32	Y32	Z32	X33	Y33	Z33	X34	Y34	Z34	X35	Y35	Z35	X36	Y36	Z36	X37	Y37	Z37	X38	Y38	Z38	X39	Y39	Z39	X40	Y40	Z40	X41	Y41	Z41	X42	Y42	Z42	

173	1.720	-965.11523	-451.05652	1713.22485	-1105.83948	-436.09305	1689.17383	-943.02527	-310.35748	1664.87903	-1082.74683	-282.59680	1641.63513	-1004.30267	-234.61324	1519.82605	-1002.29675	-171.24245	1242.93640	-999.79248	-371.21616	1444.99670	-1007.29828	-415.81604	1271.61853	-1057.71326	-163.82028	1343.44055	-830.20709	-316.27975	1498.23853	-731.50879	-356.51373	1312.01892	-705.90631	-408.96823	1180.33923	-701.52380	-488.05807	1071.21973	-750.53235	-589.90082	991.99146	-708.48761	-558.77838	971.82697	-709.47510	-610.90991	932.06177	-1193.87341	-295.58948	1474.31714	-1266.83179	-242.52657	1284.12634	-1283.55823	-242.92216	1137.89270	-1308.98120	-267.10397	1021.13824	-1301.93799	-319.18808	895.07813	-1322.52063	-266.79779	891.36389	-1333.24719	-303.27512	828.92389	-871.37115	-401.33401	978.59180	-1128.08521	-402.05511	968.77893	-953.77185	-190.82152	1023.15009	-1068.00232	-186.14946	1019.93439	-828.45978	-302.13263	670.53253	-861.13861	-241.20642	473.61203	-865.98193	-157.28456	296.11227	-906.19238	-131.43188	73.55755	-959.64178	-95.50146	47.30200	-884.14282	-284.58444	31.34583	-1218.65039	-382.89313	673.03674	-1200.18469	-459.93759	478.87393	-1225.53308	-465.20844	294.21893	-1213.09033	-498.89529	101.35966	-1160.04785	-484.64587	35.74227	-1235.63708	-656.84235	81.76805	-1050.42639	-356.46613	1793.22974						 
174	1.730	-967.27325	-459.00290	1712.76013	-1107.88049	-443.68378	1687.96912	-944.36102	-318.37262	1664.27417	-1084.49854	-290.05942	1640.32788	-1005.52710	-242.49391	1518.68665	-1003.60529	-179.28664	1241.83594	-1001.16290	-379.21628	1444.02698	-1008.50433	-423.77475	1270.63867	-1058.66016	-171.66327	1342.18127	-831.61169	-324.35834	1497.49683	-732.65002	-364.72592	1311.39587	-706.79791	-417.56857	1179.84534	-702.72137	-496.40897	1071.24707	-752.19672	-600.02100	993.21942	-710.31287	-569.09442	972.34827	-711.47522	-621.84741	933.45416	-1195.25769	-303.19431	1472.85559	-1267.07959	-249.57417	1282.61230	-1284.42957	-249.44603	1136.35938	-1309.72290	-273.43100	1019.76642	-1302.83350	-325.39178	893.70868	-1323.16199	-272.93320	889.98529	-1333.94116	-309.30338	827.51691	-871.93896	-408.62201	977.32709	-1128.76819	-410.53943	967.82300	-955.46381	-198.55379	1022.10114	-1069.73718	-194.25046	1018.90808	-829.23834	-306.94833	669.79669	-861.90924	-244.99345	473.31213	-866.64301	-159.36789	296.62515	-906.38477	-131.64565	74.14865	-959.99158	-95.61097	48.06089	-884.05774	-284.63635	31.29401	-1219.45264	-389.51712	671.52057	-1200.28040	-467.59540	477.84473	-1226.92627	-479.20462	293.81448	-1215.29138	-518.88873	101.72768	-1163.12659	-505.64407	35.53641	-1234.59595	-678.05548	86.55072	-1052.52966	-364.11826	1792.11096						 
175	1.740	-969.17358	-466.71490	1711.57080	-1109.96851	-451.29996	1686.74866	-946.54950	-326.37271	1663.14185	-1086.22949	-297.88727	1639.26111	-1007.03674	-250.40552	1517.57349	-1005.04047	-187.31139	1240.71521	-1002.74518	-387.21823	1443.05786	-1009.72906	-431.72333	1269.51660	-1060.23633	-179.54027	1340.81885	-833.11011	-332.49179	1496.71350	-733.84851	-372.73090	1310.66138	-707.92377	-425.78314	1179.18323	-704.23499	-506.05679	1071.11646	-753.85760	-609.49896	994.01788	-712.15521	-578.89380	973.00586	-713.30103	-631.64453	934.23602	-1196.69617	-310.74411	1471.59668	-1268.61877	-256.61127	1281.39819	-1285.50293	-256.27579	1135.24146	-1310.62231	-279.96332	1018.35699	-1303.77563	-331.86307	892.20880	-1323.84363	-279.26471	888.54236	-1334.59033	-315.57642	825.80005	-872.51404	-415.83691	975.87695	-1129.57922	-419.16696	966.83337	-957.31287	-206.34044	1021.00000	-1071.64417	-202.51302	1017.82025	-830.13763	-312.22421	669.01166	-862.83313	-248.99564	472.93073	-867.38715	-161.52818	297.17514	-906.56238	-131.98112	74.82206	-959.97559	-95.94930	48.95354	-883.89984	-284.76706	31.29925	-1220.48669	-396.22925	670.09204	-1200.48877	-475.45563	476.85556	-1228.08203	-492.44357	293.43924	-1217.35950	-537.67419	102.29850	-1165.33008	-525.15442	35.11095	-1233.83630	-697.77631	90.96632	-1054.73669	-371.80054	1791.17261						 
176	1.750	-971.85480	-474.82779	1710.59839	-1112.23303	-458.94162	1685.61047	-948.87140	-333.99335	1662.52612	-1088.06897	-305.61557	1638.00720	-1008.61383	-258.38965	1516.35181	-1006.68298	-195.42851	1239.53760	-1004.41327	-395.24744	1442.04077	-1011.09027	-439.93600	1268.51489	-1061.85144	-187.44083	1339.77087	-834.75311	-340.60016	1495.88660	-735.14813	-380.78720	1310.08850	-709.18793	-433.78961	1178.35999	-705.84503	-514.67664	1070.68030	-755.64648	-618.59070	994.46851	-714.17847	-587.73523	972.60779	-715.28589	-641.27307	934.73712	-1198.34729	-318.48782	1470.08362	-1269.92957	-263.85077	1280.09473	-1286.58398	-263.22034	1133.90686	-1311.62012	-286.63892	1016.91992	-1304.87598	-338.38828	890.71057	-1324.76843	-285.76654	887.10248	-1335.51831	-321.86234	824.40131	-873.32263	-423.13467	974.60974	-1130.38501	-427.96036	965.86066	-959.31580	-214.27394	1019.75031	-1073.64917	-210.92561	1016.66656	-831.13568	-317.56705	668.26990	-863.59595	-253.10625	472.69922	-868.04315	-163.98546	297.76984	-906.72290	-132.30472	75.59999	-960.33331	-96.10862	49.77392	-883.67401	-284.78503	31.35969	-1221.85535	-403.39899	668.69397	-1200.85803	-483.43167	475.71658	-1229.11829	-504.98401	293.00757	-1218.76941	-554.82275	102.78188	-1167.18140	-543.06384	35.46201	-1233.03223	-715.57422	94.66039	-1056.94946	-379.47195	1789.77722						 
